G04 ================== begin FILE IDENTIFICATION RECORD ==================*
G04 Layout Name:  PROIECT_pcb.brd*
G04 Film Name:    BOTTOM*
G04 File Format:  Gerber RS274X*
G04 File Origin:  Cadence Allegro 17.2-S025*
G04 Origin Date:  Fri Mar 22 15:31:01 2024*
G04 *
G04 Layer:  ETCH/BOTTOM*
G04 Layer:  PIN/BOTTOM*
G04 Layer:  VIA CLASS/BOTTOM*
G04 *
G04 Offset:    (0.00 0.00)*
G04 Mirror:    No*
G04 Mode:      Positive*
G04 Rotation:  0*
G04 FullContactRelief:  No*
G04 UndefLineWidth:     0.00*
G04 ================== end FILE IDENTIFICATION RECORD ====================*
%FSLAX25Y25*MOIN*%
%IR0*IPPOS*OFA0.00000B0.00000*MIA0B0*SFA1.00000B1.00000*%
%ADD12C,.024*%
%ADD11C,.06*%
%ADD13C,.065*%
%ADD14R,.06X.06*%
%ADD10C,.128*%
%ADD15C,.02*%
%ADD16C,.036*%
%ADD17C,.07004*%
%ADD18C,.08004*%
G75*
%LPD*%
G75*
G36*
G01X20702Y2001D02*
Y20702D01*
X2001D01*
Y126500D01*
X257999D01*
Y2001D01*
X20702D01*
G37*
%LPC*%
G75*
G36*
G01X201000Y75302D02*
G02Y69698I0J-2802D01*
G01X143000D01*
G02Y75302I0J2802D01*
G01X201000D01*
G37*
G36*
G01X149000Y27198D02*
G02Y32802I0J2802D01*
G01X198500D01*
G02Y27198I0J-2802D01*
G01X149000D01*
G37*
G36*
G01X104998Y17500D02*
Y23500D01*
G02X106000Y24502I1002J0D01*
G01X112000D01*
G02X113002Y23500I0J-1002D01*
G01Y17500D01*
G02X112000Y16498I-1002J0D01*
G01X106000D01*
G02X104998Y17500I0J1002D01*
G37*
G36*
G01X98998Y79500D02*
Y85500D01*
G02X100000Y86502I1002J0D01*
G01X106000D01*
G02X107002Y85500I0J-1002D01*
G01Y79500D01*
G02X106000Y78498I-1002J0D01*
G01X100000D01*
G02X98998Y79500I0J1002D01*
G37*
G36*
G01X123000Y93302D02*
G02Y87698I0J-2802D01*
G01X15500D01*
G02Y93302I0J2802D01*
G01X123000D01*
G37*
G36*
G01X152082Y119498D02*
X89418D01*
G02Y123502I-918J2002D01*
G01X152082D01*
G02Y119498I918J-2002D01*
G37*
G36*
G01X230582Y110498D02*
X176466D01*
G02Y114502I-3466J2002D01*
G01X230582D01*
G02Y110498I918J-2002D01*
G37*
G36*
G01X142082Y99998D02*
X60418D01*
G02Y104002I-918J2002D01*
G01X142082D01*
G02Y99998I918J-2002D01*
G37*
G36*
G01X132082Y93998D02*
X25418D01*
G02Y98002I-918J2002D01*
G01X132082D01*
G02Y93998I918J-2002D01*
G37*
G36*
G01X196582Y88998D02*
X164918D01*
G02Y93002I-918J2002D01*
G01X196582D01*
G02Y88998I918J-2002D01*
G37*
G36*
G01X130142Y79698D02*
X125858D01*
G02Y85302I-2858J2802D01*
G01X130142D01*
G02X135858I2858J-2802D01*
G01X140142D01*
G02Y79698I2858J-2802D01*
G01X135858D01*
G02X130142I-2858J2802D01*
G37*
G36*
G01X161741Y59429D02*
G03X161080Y59277I-283J-283D01*
G02X158082Y57998I-2080J723D01*
G01X105918D01*
G02Y62002I-918J2002D01*
G01X112141D01*
G03X112504Y62570I0J400D01*
G02X115418Y65502I1996J930D01*
G01X136641D01*
G03X137004Y66070I0J400D01*
G02X139918Y69002I1996J930D01*
G01X152082D01*
G02X154996Y66070I918J-2002D01*
G03X155359Y65502I363J-168D01*
G01X160468D01*
G03X160857Y65993I0J400D01*
G02X163918Y68502I2143J507D01*
G01X191582D01*
G02Y64498I918J-2002D01*
G01X163918D01*
G02X163387Y64332I-917J2002D01*
G03X163175Y63656I71J-393D01*
G01X171002Y55829D01*
Y53966D01*
G02X166903Y53909I-2002J-3466D01*
G01X166998Y53967D01*
Y54171D01*
X161741Y59429D01*
G37*
G36*
G01X131829Y38002D02*
X191582D01*
G02Y33998I918J-2002D01*
G01X130171D01*
X126998Y37171D01*
Y47034D01*
G02X131002I2002J3466D01*
G01Y38829D01*
X131829Y38002D01*
G37*
G54D17*
X15500Y62500D03*
X129000Y20500D03*
X119000D03*
X159000D03*
X149000Y50500D03*
X169000Y20500D03*
X173000Y82500D03*
X247500Y73000D03*
G54D18*
X15500Y72500D03*
X103000Y112500D03*
X119000Y50500D03*
X109000D03*
X113000Y82500D03*
Y112500D03*
X123000D03*
X133000D03*
X149000Y20500D03*
X139000D03*
X159000Y50500D03*
X139000D03*
X163000Y82500D03*
X153000D03*
X143000Y112500D03*
X153000D03*
X163000D03*
X247500Y63000D03*
%LPD*%
G75*
G54D10*
X10700Y10700D03*
X249300Y249300D03*
G54D11*
X15500Y62500D03*
Y72500D03*
X103000Y112500D03*
X129000Y20500D03*
X119000D03*
X129000Y50500D03*
X119000D03*
X109000D03*
X133000Y82500D03*
X123000D03*
X113000D03*
Y112500D03*
X123000D03*
X133000D03*
X114500Y210000D03*
X124500D03*
X114500Y240000D03*
X124500D03*
X159000Y20500D03*
X149000D03*
X139000D03*
X159000Y50500D03*
X149000D03*
X139000D03*
X163000Y82500D03*
X153000D03*
X143000D03*
Y112500D03*
X153000D03*
X163000D03*
X134500Y210000D03*
X144500D03*
X154500D03*
X134500Y240000D03*
X144500D03*
X169000Y20500D03*
Y50500D03*
X173000Y82500D03*
Y112500D03*
X247500Y63000D03*
Y73000D03*
G54D12*
X15500Y90500D03*
X24500Y96000D03*
Y224500D03*
X59500Y102000D03*
Y210000D03*
X88500Y121500D03*
Y249500D03*
X109000Y20500D03*
X105000Y60000D03*
X103000Y82500D03*
X113000Y82000D03*
Y82500D03*
X114500Y63500D03*
X123000Y90500D03*
X113000Y130500D03*
X123000Y140500D03*
X114500Y210000D03*
X124500Y224500D03*
Y252500D03*
X149000Y30000D03*
X159000Y60000D03*
X153000Y82500D03*
Y67000D03*
X139000D03*
X143000Y72500D03*
X153000Y121500D03*
X133000Y96000D03*
X143000Y102000D03*
X135500Y140500D03*
X144500Y210000D03*
Y223000D03*
X164000Y91000D03*
X163000Y66500D03*
X162500Y130500D03*
X198500Y30000D03*
X192500Y36000D03*
X197500Y91000D03*
X192500Y66500D03*
X201000Y72500D03*
Y220000D03*
X231500Y112500D03*
X234500Y141500D03*
G54D13*
X24500D03*
Y181500D03*
X59500Y141000D03*
Y181000D03*
X88500Y141000D03*
Y181000D03*
X135500Y140500D03*
X162500Y141000D03*
X135500Y180500D03*
X162500Y181000D03*
X201000Y141000D03*
Y181000D03*
X234500Y141500D03*
Y181500D03*
G54D14*
X103000Y82500D03*
X109000Y20500D03*
X154500Y240000D03*
G54D15*
G01X24500Y96000D02*
X133000D01*
G01X124500Y224500D02*
X24500D01*
G01X59500Y102000D02*
X143000D01*
G01X114500Y210000D02*
X59500D01*
G01X88500Y121500D02*
X153000D01*
G01X124500Y252500D02*
X91500D01*
X88500Y249500D01*
G01X105000Y60000D02*
X159000D01*
G01X192500Y36000D02*
X131000D01*
X129000Y38000D01*
Y50500D01*
G01X113000Y82500D02*
Y82000D01*
G01X114500Y63500D02*
X160500D01*
X169000Y55000D01*
Y50500D01*
G01X162500Y130500D02*
X113000D01*
G01X135500Y140500D02*
X123000D01*
G01X153000Y67000D02*
X139000D01*
G01X144500Y223000D02*
X198000D01*
X201000Y220000D01*
G01X163000Y66500D02*
X192500D01*
G01X197500Y91000D02*
X164000D01*
G01X231500Y112500D02*
X173000D01*
G54D16*
G01X11798Y62500D02*
X15500D01*
G01Y58798D02*
Y62500D01*
G01D02*
Y66202D01*
G01Y62500D02*
X19202D01*
G01X15500Y90500D02*
X123000D01*
G01X119000Y16798D02*
Y20500D01*
G01D02*
Y24202D01*
G01X115298Y20500D02*
X119000D01*
G01D02*
X122702D01*
G01X129000Y16798D02*
Y20500D01*
G01D02*
Y24202D01*
G01X125298Y20500D02*
X129000D01*
G01D02*
X132702D01*
G01X133000Y82500D02*
X123000D01*
G01X159000Y16798D02*
Y20500D01*
G01D02*
Y24202D01*
G01X155298Y20500D02*
X159000D01*
G01D02*
X162702D01*
G01X198500Y30000D02*
X149000D01*
G01Y46798D02*
Y50500D01*
G01D02*
Y54202D01*
G01X145298Y50500D02*
X149000D01*
G01D02*
X152702D01*
G01X143000Y72500D02*
X201000D01*
G01X133000Y82500D02*
X143000D01*
G01X169000Y16798D02*
Y20500D01*
G01D02*
Y24202D01*
G01X165298Y20500D02*
X169000D01*
G01D02*
X172702D01*
G01X173000Y78798D02*
Y82500D01*
G01D02*
Y86202D01*
G01X169298Y82500D02*
X173000D01*
G01D02*
X176702D01*
G01X247500Y69298D02*
Y73000D01*
G01D02*
Y76702D01*
G01X243798Y73000D02*
X247500D01*
G01D02*
X251202D01*
M02*
