G04 ================== begin FILE IDENTIFICATION RECORD ==================*
G04 Layout Name:  PROIECT_pcb.brd*
G04 Film Name:    FAB*
G04 File Format:  Gerber RS274X*
G04 File Origin:  Cadence Allegro 17.2-S025*
G04 Origin Date:  Fri Mar 22 15:31:01 2024*
G04 *
G04 Layer:  MANUFACTURING/NCDRILL_LEGEND*
G04 Layer:  MANUFACTURING/NCDRILL_FIGURE*
G04 Layer:  MANUFACTURING/XSECTION_CHART*
G04 Layer:  MANUFACTURING/NCLEGEND-1-2*
G04 Layer:  BOARD GEOMETRY/DIMENSION*
G04 Layer:  BOARD GEOMETRY/DESIGN_OUTLINE*
G04 Layer:  BOARD GEOMETRY/CUTOUT*
G04 *
G04 Offset:    (0.00 0.00)*
G04 Mirror:    No*
G04 Mode:      Positive*
G04 Rotation:  0*
G04 FullContactRelief:  No*
G04 UndefLineWidth:     0.00*
G04 ================== end FILE IDENTIFICATION RECORD ====================*
%FSLAX25Y25*MOIN*%
%IR0*IPPOS*OFA0.00000B0.00000*MIA0B0*SFA1.00000B1.00000*%
%AMMACRO12*
1,1,0.0,.025,0.0*
20,1,0.0,.025,0.0,.02462,-.004341,0.0*
1,1,0.0,.02462,-.004341*
20,1,0.0,.02462,-.004341,.023492,-.008551,0.0*
1,1,0.0,.023492,-.008551*
20,1,0.0,.023492,-.008551,.021651,-.0125,0.0*
1,1,0.0,.021651,-.0125*
20,1,0.0,.021651,-.0125,.019151,-.01607,0.0*
1,1,0.0,.019151,-.01607*
20,1,0.0,.019151,-.01607,.01607,-.019151,0.0*
1,1,0.0,.01607,-.019151*
20,1,0.0,.01607,-.019151,.0125,-.021651,0.0*
1,1,0.0,.0125,-.021651*
20,1,0.0,.0125,-.021651,.008551,-.023492,0.0*
1,1,0.0,.008551,-.023492*
20,1,0.0,.008551,-.023492,.004341,-.02462,0.0*
1,1,0.0,.004341,-.02462*
20,1,0.0,.004341,-.02462,0.0,-.025,0.0*
1,1,0.0,0.0,-.025*
20,1,0.0,0.0,-.025,-.004341,-.02462,0.0*
1,1,0.0,-.004341,-.02462*
20,1,0.0,-.004341,-.02462,-.008551,-.023492,0.0*
1,1,0.0,-.008551,-.023492*
20,1,0.0,-.008551,-.023492,-.0125,-.021651,0.0*
1,1,0.0,-.0125,-.021651*
20,1,0.0,-.0125,-.021651,-.01607,-.019151,0.0*
1,1,0.0,-.01607,-.019151*
20,1,0.0,-.01607,-.019151,-.019151,-.01607,0.0*
1,1,0.0,-.019151,-.01607*
20,1,0.0,-.019151,-.01607,-.021651,-.0125,0.0*
1,1,0.0,-.021651,-.0125*
20,1,0.0,-.021651,-.0125,-.023492,-.008551,0.0*
1,1,0.0,-.023492,-.008551*
20,1,0.0,-.023492,-.008551,-.02462,-.004341,0.0*
1,1,0.0,-.02462,-.004341*
20,1,0.0,-.02462,-.004341,-.025,0.0,0.0*
1,1,0.0,-.025,0.0*
20,1,0.0,-.025,0.0,-.02462,.004341,0.0*
1,1,0.0,-.02462,.004341*
20,1,0.0,-.02462,.004341,-.023492,.008551,0.0*
1,1,0.0,-.023492,.008551*
20,1,0.0,-.023492,.008551,-.021651,.0125,0.0*
1,1,0.0,-.021651,.0125*
20,1,0.0,-.021651,.0125,-.019151,.01607,0.0*
1,1,0.0,-.019151,.01607*
20,1,0.0,-.019151,.01607,-.01607,.019151,0.0*
1,1,0.0,-.01607,.019151*
20,1,0.0,-.01607,.019151,-.0125,.021651,0.0*
1,1,0.0,-.0125,.021651*
20,1,0.0,-.0125,.021651,-.008551,.023492,0.0*
1,1,0.0,-.008551,.023492*
20,1,0.0,-.008551,.023492,-.004341,.02462,0.0*
1,1,0.0,-.004341,.02462*
20,1,0.0,-.004341,.02462,0.0,.025,0.0*
1,1,0.0,0.0,.025*
20,1,0.0,0.0,.025,.004341,.02462,0.0*
1,1,0.0,.004341,.02462*
20,1,0.0,.004341,.02462,.008551,.023492,0.0*
1,1,0.0,.008551,.023492*
20,1,0.0,.008551,.023492,.0125,.021651,0.0*
1,1,0.0,.0125,.021651*
20,1,0.0,.0125,.021651,.01607,.019151,0.0*
1,1,0.0,.01607,.019151*
20,1,0.0,.01607,.019151,.019151,.01607,0.0*
1,1,0.0,.019151,.01607*
20,1,0.0,.019151,.01607,.021651,.0125,0.0*
1,1,0.0,.021651,.0125*
20,1,0.0,.021651,.0125,.023492,.008551,0.0*
1,1,0.0,.023492,.008551*
20,1,0.0,.023492,.008551,.02462,.004341,0.0*
1,1,0.0,.02462,.004341*
20,1,0.0,.02462,.004341,.025,0.0,0.0*
1,1,0.0,.025,0.0*
1,1,0.0,.0125,0.0*
20,1,0.0,.0125,0.0,-.0125,0.0,0.0*
1,1,0.0,-.0125,0.0*
1,1,0.0,0.0,.0125*
20,1,0.0,0.0,.0125,0.0,-.0125,0.0*
1,1,0.0,0.0,-.0125*
%
%ADD12MACRO12*%
%AMMACRO11*
1,1,0.0,.025,0.0*
20,1,0.0,.025,0.0,.0125,.021651,0.0*
1,1,0.0,.0125,.021651*
20,1,0.0,.0125,.021651,-.0125,.021651,0.0*
1,1,0.0,-.0125,.021651*
20,1,0.0,-.0125,.021651,-.025,0.0,0.0*
1,1,0.0,-.025,0.0*
20,1,0.0,-.025,0.0,-.0125,-.021651,0.0*
1,1,0.0,-.0125,-.021651*
20,1,0.0,-.0125,-.021651,.0125,-.021651,0.0*
1,1,0.0,.0125,-.021651*
20,1,0.0,.0125,-.021651,.025,0.0,0.0*
1,1,0.0,.025,0.0*
%
%ADD11MACRO11*%
%AMMACRO13*
1,1,0.0,-.02,.0125*
20,1,0.0,-.02,.0125,-.019696,.015973,0.0*
1,1,0.0,-.019696,.015973*
20,1,0.0,-.019696,.015973,-.018794,.01934,0.0*
1,1,0.0,-.018794,.01934*
20,1,0.0,-.018794,.01934,-.017321,.0225,0.0*
1,1,0.0,-.017321,.0225*
20,1,0.0,-.017321,.0225,-.015321,.025356,0.0*
1,1,0.0,-.015321,.025356*
20,1,0.0,-.015321,.025356,-.012856,.027821,0.0*
1,1,0.0,-.012856,.027821*
20,1,0.0,-.012856,.027821,-.01,.029821,0.0*
1,1,0.0,-.01,.029821*
20,1,0.0,-.01,.029821,-.00684,.031294,0.0*
1,1,0.0,-.00684,.031294*
20,1,0.0,-.00684,.031294,-.003473,.032196,0.0*
1,1,0.0,-.003473,.032196*
20,1,0.0,-.003473,.032196,0.0,.0325,0.0*
1,1,0.0,0.0,.0325*
20,1,0.0,0.0,.0325,.003473,.032196,0.0*
1,1,0.0,.003473,.032196*
20,1,0.0,.003473,.032196,.00684,.031294,0.0*
1,1,0.0,.00684,.031294*
20,1,0.0,.00684,.031294,.01,.029821,0.0*
1,1,0.0,.01,.029821*
20,1,0.0,.01,.029821,.012856,.027821,0.0*
1,1,0.0,.012856,.027821*
20,1,0.0,.012856,.027821,.015321,.025356,0.0*
1,1,0.0,.015321,.025356*
20,1,0.0,.015321,.025356,.017321,.0225,0.0*
1,1,0.0,.017321,.0225*
20,1,0.0,.017321,.0225,.018794,.01934,0.0*
1,1,0.0,.018794,.01934*
20,1,0.0,.018794,.01934,.019696,.015973,0.0*
1,1,0.0,.019696,.015973*
20,1,0.0,.019696,.015973,.02,.0125,0.0*
1,1,0.0,.02,.0125*
20,1,0.0,.02,.0125,.02,-.0125,0.0*
1,1,0.0,.02,-.0125*
20,1,0.0,.02,-.0125,.019696,-.015973,0.0*
1,1,0.0,.019696,-.015973*
20,1,0.0,.019696,-.015973,.018794,-.01934,0.0*
1,1,0.0,.018794,-.01934*
20,1,0.0,.018794,-.01934,.017321,-.0225,0.0*
1,1,0.0,.017321,-.0225*
20,1,0.0,.017321,-.0225,.015321,-.025356,0.0*
1,1,0.0,.015321,-.025356*
20,1,0.0,.015321,-.025356,.012856,-.027821,0.0*
1,1,0.0,.012856,-.027821*
20,1,0.0,.012856,-.027821,.01,-.029821,0.0*
1,1,0.0,.01,-.029821*
20,1,0.0,.01,-.029821,.00684,-.031294,0.0*
1,1,0.0,.00684,-.031294*
20,1,0.0,.00684,-.031294,.003473,-.032196,0.0*
1,1,0.0,.003473,-.032196*
20,1,0.0,.003473,-.032196,0.0,-.0325,0.0*
1,1,0.0,0.0,-.0325*
20,1,0.0,0.0,-.0325,-.003473,-.032196,0.0*
1,1,0.0,-.003473,-.032196*
20,1,0.0,-.003473,-.032196,-.00684,-.031294,0.0*
1,1,0.0,-.00684,-.031294*
20,1,0.0,-.00684,-.031294,-.01,-.029821,0.0*
1,1,0.0,-.01,-.029821*
20,1,0.0,-.01,-.029821,-.012856,-.027821,0.0*
1,1,0.0,-.012856,-.027821*
20,1,0.0,-.012856,-.027821,-.015321,-.025356,0.0*
1,1,0.0,-.015321,-.025356*
20,1,0.0,-.015321,-.025356,-.017321,-.0225,0.0*
1,1,0.0,-.017321,-.0225*
20,1,0.0,-.017321,-.0225,-.018794,-.01934,0.0*
1,1,0.0,-.018794,-.01934*
20,1,0.0,-.018794,-.01934,-.019696,-.015973,0.0*
1,1,0.0,-.019696,-.015973*
20,1,0.0,-.019696,-.015973,-.02,-.0125,0.0*
1,1,0.0,-.02,-.0125*
20,1,0.0,-.02,-.0125,-.02,.0125,0.0*
1,1,0.0,-.02,.0125*
%
%ADD13MACRO13*%
%AMMACRO10*
1,1,0.0,-.02625,-.0375*
20,1,0.0,-.02625,-.0375,.02625,.0375,0.0*
1,1,0.0,.02625,.0375*
1,1,0.0,-.02625,.0375*
20,1,0.0,-.02625,.0375,.02625,-.0375,0.0*
1,1,0.0,.02625,-.0375*
%
%ADD10MACRO10*%
%ADD14C,.005*%
G75*
%LPD*%
G75*
G36*
G01X323000Y240179D02*
Y217139D01*
X325500D01*
Y63539D01*
X323000D01*
Y40499D01*
X338000D01*
Y63539D01*
X335500D01*
Y217139D01*
X338000D01*
Y240179D01*
X323000D01*
G37*
G36*
G01X303000Y40499D02*
Y63539D01*
X363000D01*
Y40499D01*
X303000D01*
G37*
G36*
G01Y217139D02*
Y240179D01*
X363000D01*
Y217139D01*
X303000D01*
G37*
G54D10*
X10700Y10700D03*
X45450Y297000D03*
X249300Y249300D03*
G54D11*
X15500Y62500D03*
Y72500D03*
X45450Y347000D03*
X103000Y82500D03*
Y112500D03*
X129000Y20500D03*
X119000D03*
X109000D03*
X129000Y50500D03*
X119000D03*
X109000D03*
X133000Y82500D03*
X123000D03*
X113000D03*
Y112500D03*
X123000D03*
X133000D03*
X114500Y210000D03*
X124500D03*
X114500Y240000D03*
X124500D03*
X159000Y20500D03*
X149000D03*
X139000D03*
X159000Y50500D03*
X149000D03*
X139000D03*
X163000Y82500D03*
X153000D03*
X143000D03*
Y112500D03*
X153000D03*
X163000D03*
X134500Y210000D03*
X144500D03*
X154500D03*
X134500Y240000D03*
X144500D03*
X154500D03*
X169000Y20500D03*
Y50500D03*
X173000Y82500D03*
Y112500D03*
X247500Y63000D03*
Y73000D03*
G54D12*
X15500Y90500D03*
X24500Y96000D03*
Y224500D03*
X59500Y102000D03*
Y210000D03*
X45450Y372000D03*
X88500Y121500D03*
Y249500D03*
X109000Y20500D03*
X105000Y60000D03*
X103000Y82500D03*
X113000Y82000D03*
Y82500D03*
X114500Y63500D03*
X123000Y90500D03*
X113000Y130500D03*
X123000Y140500D03*
X114500Y210000D03*
X124500Y224500D03*
Y252500D03*
X149000Y30000D03*
X159000Y60000D03*
X153000Y82500D03*
Y67000D03*
X139000D03*
X143000Y72500D03*
X153000Y121500D03*
X133000Y96000D03*
X143000Y102000D03*
X135500Y140500D03*
X144500Y210000D03*
Y223000D03*
X164000Y91000D03*
X163000Y66500D03*
X162500Y130500D03*
X198500Y30000D03*
X192500Y36000D03*
X197500Y91000D03*
X192500Y66500D03*
X201000Y72500D03*
Y220000D03*
X231500Y112500D03*
X234500Y141500D03*
G54D13*
X24500D03*
Y181500D03*
X59500Y141000D03*
Y181000D03*
X45450Y322000D03*
X88500Y141000D03*
Y181000D03*
X135500Y140500D03*
X162500Y141000D03*
X135500Y180500D03*
X162500Y181000D03*
X201000Y141000D03*
Y181000D03*
X234500Y141500D03*
Y181500D03*
G54D14*
G01X307700Y29083D02*
Y26583D01*
G01X307087Y29083D02*
X308313D01*
G01X309900Y26583D02*
X309687Y26625D01*
X309500Y26791D01*
X309340Y27041D01*
X309233Y27333D01*
X309180Y27666D01*
Y28000D01*
X309233Y28333D01*
X309340Y28625D01*
X309500Y28875D01*
X309687Y29041D01*
X309900Y29083D01*
X310113Y29041D01*
X310300Y28875D01*
X310460Y28625D01*
X310567Y28333D01*
X310620Y28000D01*
Y27666D01*
X310567Y27333D01*
X310460Y27041D01*
X310300Y26791D01*
X310113Y26625D01*
X309900Y26583D01*
G01X312100Y29083D02*
Y26583D01*
G01X311487Y29083D02*
X312713D01*
G01X313633Y26583D02*
X314300Y29083D01*
X314967Y26583D01*
G01X314727Y27458D02*
X313873D01*
G01X315967Y29083D02*
Y26583D01*
X317033D01*
G01X320900Y29083D02*
Y26583D01*
G01X320287Y29083D02*
X321513D01*
G01X322540Y26583D02*
Y29083D01*
G01X323660D02*
Y26583D01*
G01Y27833D02*
X322540D01*
G01X324980Y29083D02*
X325620D01*
G01X325300D02*
Y26583D01*
G01X324980D02*
X325620D01*
G01X328087Y28875D02*
X327927Y29000D01*
X327740Y29083D01*
X327527D01*
X327287Y28958D01*
X327100Y28750D01*
X326967Y28500D01*
X326860Y28083D01*
X326833Y27708D01*
X326887Y27333D01*
X326967Y27083D01*
X327127Y26833D01*
X327313Y26666D01*
X327500Y26583D01*
X327687D01*
X327873Y26666D01*
X328033Y26791D01*
X328167Y26958D01*
G01X329113Y26583D02*
Y29083D01*
G01X330127D02*
X329113Y27541D01*
G01X330287Y26583D02*
X329567Y28250D01*
G01X331287Y26583D02*
Y29083D01*
X332513Y26583D01*
Y29083D01*
G01X334633Y26583D02*
X333567D01*
Y29083D01*
X334633D01*
G01X334207Y27875D02*
X333567D01*
G01X335740Y26916D02*
X335953Y26708D01*
X336193Y26583D01*
X336407D01*
X336620Y26708D01*
X336780Y26916D01*
X336860Y27208D01*
X336807Y27500D01*
X336673Y27750D01*
X336433Y27916D01*
X336113Y28000D01*
X335927Y28166D01*
X335847Y28458D01*
X335900Y28750D01*
X336033Y28958D01*
X336220Y29083D01*
X336407D01*
X336593Y29000D01*
X336753Y28791D01*
G01X337940Y26916D02*
X338153Y26708D01*
X338393Y26583D01*
X338607D01*
X338820Y26708D01*
X338980Y26916D01*
X339060Y27208D01*
X339007Y27500D01*
X338873Y27750D01*
X338633Y27916D01*
X338313Y28000D01*
X338127Y28166D01*
X338047Y28458D01*
X338100Y28750D01*
X338233Y28958D01*
X338420Y29083D01*
X338607D01*
X338793Y29000D01*
X338953Y28791D01*
G01X342900Y26583D02*
Y29083D01*
X342580Y28583D01*
G01Y26583D02*
X343220D01*
G01X345100Y29083D02*
X344887Y29000D01*
X344727Y28791D01*
X344620Y28541D01*
X344540Y28208D01*
X344513Y27833D01*
X344540Y27458D01*
X344620Y27125D01*
X344727Y26875D01*
X344887Y26666D01*
X345100Y26583D01*
X345313Y26666D01*
X345473Y26875D01*
X345580Y27125D01*
X345660Y27458D01*
X345687Y27833D01*
X345660Y28208D01*
X345580Y28541D01*
X345473Y28791D01*
X345313Y29000D01*
X345100Y29083D01*
G01X347300Y26500D02*
X347247Y26541D01*
Y26625D01*
X347300Y26666D01*
X347353Y26625D01*
Y26541D01*
X347300Y26500D01*
G01X349820Y26583D02*
Y29083D01*
X348833Y27291D01*
X350167D01*
G01X353207Y26583D02*
Y29083D01*
X353900Y27000D01*
X354593Y29083D01*
Y26583D01*
G01X355780Y29083D02*
X356420D01*
G01X356100D02*
Y26583D01*
G01X355780D02*
X356420D01*
G01X357767Y29083D02*
Y26583D01*
X358833D01*
G01X304913Y31083D02*
Y33583D01*
X305447D01*
X305660Y33458D01*
X305820Y33291D01*
X305953Y33041D01*
X306060Y32750D01*
X306087Y32333D01*
X306060Y31916D01*
X305953Y31625D01*
X305820Y31375D01*
X305660Y31208D01*
X305447Y31083D01*
X304913D01*
G01X308233D02*
X307167D01*
Y33583D01*
X308233D01*
G01X307807Y32375D02*
X307167D01*
G01X309340Y31416D02*
X309553Y31208D01*
X309793Y31083D01*
X310007D01*
X310220Y31208D01*
X310380Y31416D01*
X310460Y31708D01*
X310407Y32000D01*
X310273Y32250D01*
X310033Y32416D01*
X309713Y32500D01*
X309527Y32666D01*
X309447Y32958D01*
X309500Y33250D01*
X309633Y33458D01*
X309820Y33583D01*
X310007D01*
X310193Y33500D01*
X310353Y33291D01*
G01X311780Y33583D02*
X312420D01*
G01X312100D02*
Y31083D01*
G01X311780D02*
X312420D01*
G01X314460Y32333D02*
X314993D01*
Y31583D01*
X314833Y31333D01*
X314647Y31166D01*
X314380Y31083D01*
X314113Y31166D01*
X313927Y31333D01*
X313767Y31583D01*
X313660Y31875D01*
X313607Y32208D01*
Y32500D01*
X313660Y32750D01*
X313767Y33041D01*
X313927Y33291D01*
X314087Y33458D01*
X314300Y33583D01*
X314487D01*
X314700Y33500D01*
X314860Y33333D01*
G01X315887Y31083D02*
Y33583D01*
X317113Y31083D01*
Y33583D01*
G01X321487Y33375D02*
X321327Y33500D01*
X321140Y33583D01*
X320927D01*
X320687Y33458D01*
X320500Y33250D01*
X320367Y33000D01*
X320260Y32583D01*
X320233Y32208D01*
X320287Y31833D01*
X320367Y31583D01*
X320527Y31333D01*
X320713Y31166D01*
X320900Y31083D01*
X321087D01*
X321273Y31166D01*
X321433Y31291D01*
X321567Y31458D01*
G01X322567Y31083D02*
Y33583D01*
X323233D01*
X323447Y33458D01*
X323580Y33291D01*
X323633Y32958D01*
X323580Y32625D01*
X323420Y32416D01*
X323233Y32291D01*
X322567D01*
G01X323233D02*
X323633Y31083D01*
G01X325300D02*
X325087Y31125D01*
X324900Y31291D01*
X324740Y31541D01*
X324633Y31833D01*
X324580Y32166D01*
Y32500D01*
X324633Y32833D01*
X324740Y33125D01*
X324900Y33375D01*
X325087Y33541D01*
X325300Y33583D01*
X325513Y33541D01*
X325700Y33375D01*
X325860Y33125D01*
X325967Y32833D01*
X326020Y32500D01*
Y32166D01*
X325967Y31833D01*
X325860Y31541D01*
X325700Y31291D01*
X325513Y31125D01*
X325300Y31083D01*
G01X326940Y31416D02*
X327153Y31208D01*
X327393Y31083D01*
X327607D01*
X327820Y31208D01*
X327980Y31416D01*
X328060Y31708D01*
X328007Y32000D01*
X327873Y32250D01*
X327633Y32416D01*
X327313Y32500D01*
X327127Y32666D01*
X327047Y32958D01*
X327100Y33250D01*
X327233Y33458D01*
X327420Y33583D01*
X327607D01*
X327793Y33500D01*
X327953Y33291D01*
G01X329140Y31416D02*
X329353Y31208D01*
X329593Y31083D01*
X329807D01*
X330020Y31208D01*
X330180Y31416D01*
X330260Y31708D01*
X330207Y32000D01*
X330073Y32250D01*
X329833Y32416D01*
X329513Y32500D01*
X329327Y32666D01*
X329247Y32958D01*
X329300Y33250D01*
X329433Y33458D01*
X329620Y33583D01*
X329807D01*
X329993Y33500D01*
X330153Y33291D01*
G01X333540Y31416D02*
X333753Y31208D01*
X333993Y31083D01*
X334207D01*
X334420Y31208D01*
X334580Y31416D01*
X334660Y31708D01*
X334607Y32000D01*
X334473Y32250D01*
X334233Y32416D01*
X333913Y32500D01*
X333727Y32666D01*
X333647Y32958D01*
X333700Y33250D01*
X333833Y33458D01*
X334020Y33583D01*
X334207D01*
X334393Y33500D01*
X334553Y33291D01*
G01X336833Y31083D02*
X335767D01*
Y33583D01*
X336833D01*
G01X336407Y32375D02*
X335767D01*
G01X339087Y33375D02*
X338927Y33500D01*
X338740Y33583D01*
X338527D01*
X338287Y33458D01*
X338100Y33250D01*
X337967Y33000D01*
X337860Y32583D01*
X337833Y32208D01*
X337887Y31833D01*
X337967Y31583D01*
X338127Y31333D01*
X338313Y31166D01*
X338500Y31083D01*
X338687D01*
X338873Y31166D01*
X339033Y31291D01*
X339167Y31458D01*
G01X340700Y33583D02*
Y31083D01*
G01X340087Y33583D02*
X341313D01*
G01X342580D02*
X343220D01*
G01X342900D02*
Y31083D01*
G01X342580D02*
X343220D01*
G01X345100D02*
X344887Y31125D01*
X344700Y31291D01*
X344540Y31541D01*
X344433Y31833D01*
X344380Y32166D01*
Y32500D01*
X344433Y32833D01*
X344540Y33125D01*
X344700Y33375D01*
X344887Y33541D01*
X345100Y33583D01*
X345313Y33541D01*
X345500Y33375D01*
X345660Y33125D01*
X345767Y32833D01*
X345820Y32500D01*
Y32166D01*
X345767Y31833D01*
X345660Y31541D01*
X345500Y31291D01*
X345313Y31125D01*
X345100Y31083D01*
G01X346687D02*
Y33583D01*
X347913Y31083D01*
Y33583D01*
G01X352287Y33375D02*
X352127Y33500D01*
X351940Y33583D01*
X351727D01*
X351487Y33458D01*
X351300Y33250D01*
X351167Y33000D01*
X351060Y32583D01*
X351033Y32208D01*
X351087Y31833D01*
X351167Y31583D01*
X351327Y31333D01*
X351513Y31166D01*
X351700Y31083D01*
X351887D01*
X352073Y31166D01*
X352233Y31291D01*
X352367Y31458D01*
G01X353340Y31083D02*
Y33583D01*
G01X354460D02*
Y31083D01*
G01Y32333D02*
X353340D01*
G01X355433Y31083D02*
X356100Y33583D01*
X356767Y31083D01*
G01X356527Y31958D02*
X355673D01*
G01X357767Y31083D02*
Y33583D01*
X358433D01*
X358647Y33458D01*
X358780Y33291D01*
X358833Y32958D01*
X358780Y32625D01*
X358620Y32416D01*
X358433Y32291D01*
X357767D01*
G01X358433D02*
X358833Y31083D01*
G01X360500Y33583D02*
Y31083D01*
G01X359887Y33583D02*
X361113D01*
G01X303600Y30250D02*
X305200D01*
G01X305800D02*
X307400D01*
G01X308000D02*
X309600D01*
G01X310200D02*
X311800D01*
G01X312400D02*
X314000D01*
G01X314600D02*
X316200D01*
G01X316800D02*
X318400D01*
G01X319000D02*
X320600D01*
G01X321200D02*
X322800D01*
G01X323400D02*
X325000D01*
G01X325600D02*
X327200D01*
G01X327800D02*
X329400D01*
G01X330000D02*
X331600D01*
G01X332200D02*
X333800D01*
G01X334400D02*
X336000D01*
G01X336600D02*
X338200D01*
G01X338800D02*
X340400D01*
G01X341000D02*
X342600D01*
G01X343200D02*
X344800D01*
G01X345400D02*
X347000D01*
G01X347600D02*
X349200D01*
G01X349800D02*
X351400D01*
G01X352000D02*
X353600D01*
G01X354200D02*
X355800D01*
G01X356400D02*
X358000D01*
G01X358600D02*
X360200D01*
G01X360800D02*
X362400D01*
G01X330500Y243479D02*
X328000D01*
X328500Y243159D01*
G01X330500D02*
Y243799D01*
G01X329667Y245332D02*
Y246026D01*
G01X328417Y247372D02*
X328167Y247532D01*
X328042Y247719D01*
X328000Y247932D01*
X328083Y248199D01*
X328292Y248386D01*
X328542Y248439D01*
X328792Y248412D01*
X329000Y248306D01*
X329417Y247772D01*
X329708Y247532D01*
X330125Y247372D01*
X330500Y247319D01*
Y248439D01*
G01X365467Y54519D02*
Y52019D01*
X366533D01*
G01X367693Y54102D02*
X367853Y54352D01*
X368040Y54477D01*
X368253Y54519D01*
X368520Y54436D01*
X368707Y54227D01*
X368760Y53977D01*
X368733Y53727D01*
X368627Y53519D01*
X368093Y53102D01*
X367853Y52811D01*
X367693Y52394D01*
X367640Y52019D01*
X368760D01*
G01X372813Y53352D02*
X372920Y53477D01*
X373000Y53686D01*
X373053Y53977D01*
X373000Y54227D01*
X372893Y54394D01*
X372707Y54519D01*
X371987D01*
Y52019D01*
X372867D01*
X373053Y52186D01*
X373160Y52436D01*
X373213Y52727D01*
X373160Y53019D01*
X373000Y53269D01*
X372813Y53352D01*
X371987D01*
G01X374800Y52019D02*
X374587Y52061D01*
X374400Y52227D01*
X374240Y52477D01*
X374133Y52769D01*
X374080Y53102D01*
Y53436D01*
X374133Y53769D01*
X374240Y54061D01*
X374400Y54311D01*
X374587Y54477D01*
X374800Y54519D01*
X375013Y54477D01*
X375200Y54311D01*
X375360Y54061D01*
X375467Y53769D01*
X375520Y53436D01*
Y53102D01*
X375467Y52769D01*
X375360Y52477D01*
X375200Y52227D01*
X375013Y52061D01*
X374800Y52019D01*
G01X377000Y54519D02*
Y52019D01*
G01X376387Y54519D02*
X377613D01*
G01X379200D02*
Y52019D01*
G01X378587Y54519D02*
X379813D01*
G01X381400Y52019D02*
X381187Y52061D01*
X381000Y52227D01*
X380840Y52477D01*
X380733Y52769D01*
X380680Y53102D01*
Y53436D01*
X380733Y53769D01*
X380840Y54061D01*
X381000Y54311D01*
X381187Y54477D01*
X381400Y54519D01*
X381613Y54477D01*
X381800Y54311D01*
X381960Y54061D01*
X382067Y53769D01*
X382120Y53436D01*
Y53102D01*
X382067Y52769D01*
X381960Y52477D01*
X381800Y52227D01*
X381613Y52061D01*
X381400Y52019D01*
G01X382907D02*
Y54519D01*
X383600Y52436D01*
X384293Y54519D01*
Y52019D01*
G01X388587Y54311D02*
X388427Y54436D01*
X388240Y54519D01*
X388027D01*
X387787Y54394D01*
X387600Y54186D01*
X387467Y53936D01*
X387360Y53519D01*
X387333Y53144D01*
X387387Y52769D01*
X387467Y52519D01*
X387627Y52269D01*
X387813Y52102D01*
X388000Y52019D01*
X388187D01*
X388373Y52102D01*
X388533Y52227D01*
X388667Y52394D01*
G01X390200Y52019D02*
X389987Y52061D01*
X389800Y52227D01*
X389640Y52477D01*
X389533Y52769D01*
X389480Y53102D01*
Y53436D01*
X389533Y53769D01*
X389640Y54061D01*
X389800Y54311D01*
X389987Y54477D01*
X390200Y54519D01*
X390413Y54477D01*
X390600Y54311D01*
X390760Y54061D01*
X390867Y53769D01*
X390920Y53436D01*
Y53102D01*
X390867Y52769D01*
X390760Y52477D01*
X390600Y52227D01*
X390413Y52061D01*
X390200Y52019D01*
G01X391787D02*
Y54519D01*
X393013Y52019D01*
Y54519D01*
G01X394013Y52019D02*
Y54519D01*
X394547D01*
X394760Y54394D01*
X394920Y54227D01*
X395053Y53977D01*
X395160Y53686D01*
X395187Y53269D01*
X395160Y52852D01*
X395053Y52561D01*
X394920Y52311D01*
X394760Y52144D01*
X394547Y52019D01*
X394013D01*
G01X396213Y54519D02*
Y52727D01*
X396320Y52352D01*
X396533Y52102D01*
X396800Y52019D01*
X397067Y52102D01*
X397280Y52352D01*
X397387Y52727D01*
Y54519D01*
G01X399587Y54311D02*
X399427Y54436D01*
X399240Y54519D01*
X399027D01*
X398787Y54394D01*
X398600Y54186D01*
X398467Y53936D01*
X398360Y53519D01*
X398333Y53144D01*
X398387Y52769D01*
X398467Y52519D01*
X398627Y52269D01*
X398813Y52102D01*
X399000Y52019D01*
X399187D01*
X399373Y52102D01*
X399533Y52227D01*
X399667Y52394D01*
G01X401200Y54519D02*
Y52019D01*
G01X400587Y54519D02*
X401813D01*
G01X403400Y52019D02*
X403187Y52061D01*
X403000Y52227D01*
X402840Y52477D01*
X402733Y52769D01*
X402680Y53102D01*
Y53436D01*
X402733Y53769D01*
X402840Y54061D01*
X403000Y54311D01*
X403187Y54477D01*
X403400Y54519D01*
X403613Y54477D01*
X403800Y54311D01*
X403960Y54061D01*
X404067Y53769D01*
X404120Y53436D01*
Y53102D01*
X404067Y52769D01*
X403960Y52477D01*
X403800Y52227D01*
X403613Y52061D01*
X403400Y52019D01*
G01X405067D02*
Y54519D01*
X405733D01*
X405947Y54394D01*
X406080Y54227D01*
X406133Y53894D01*
X406080Y53561D01*
X405920Y53352D01*
X405733Y53227D01*
X405067D01*
G01X405733D02*
X406133Y52019D01*
G01X369813Y37083D02*
X370987Y38916D01*
G01X370400Y39249D02*
Y36749D01*
G01X370987Y37083D02*
X369813Y38916D01*
G01X369600Y37999D02*
X371200D01*
G01X376440Y37499D02*
X376653Y37291D01*
X376893Y37166D01*
X377107D01*
X377320Y37291D01*
X377480Y37499D01*
X377560Y37791D01*
X377507Y38083D01*
X377373Y38333D01*
X377133Y38499D01*
X376813Y38583D01*
X376627Y38749D01*
X376547Y39041D01*
X376600Y39333D01*
X376733Y39541D01*
X376920Y39666D01*
X377107D01*
X377293Y39583D01*
X377453Y39374D01*
G01X378613Y39666D02*
Y37874D01*
X378720Y37499D01*
X378933Y37249D01*
X379200Y37166D01*
X379467Y37249D01*
X379680Y37499D01*
X379787Y37874D01*
Y39666D01*
G01X380867Y37166D02*
Y39666D01*
X381533D01*
X381747Y39541D01*
X381880Y39374D01*
X381933Y39041D01*
X381880Y38708D01*
X381720Y38499D01*
X381533Y38374D01*
X380867D01*
G01X381533D02*
X381933Y37166D01*
G01X383093D02*
Y39666D01*
X384107D01*
G01X383733Y38458D02*
X383093D01*
G01X385133Y37166D02*
X385800Y39666D01*
X386467Y37166D01*
G01X386227Y38041D02*
X385373D01*
G01X388587Y39458D02*
X388427Y39583D01*
X388240Y39666D01*
X388027D01*
X387787Y39541D01*
X387600Y39333D01*
X387467Y39083D01*
X387360Y38666D01*
X387333Y38291D01*
X387387Y37916D01*
X387467Y37666D01*
X387627Y37416D01*
X387813Y37249D01*
X388000Y37166D01*
X388187D01*
X388373Y37249D01*
X388533Y37374D01*
X388667Y37541D01*
G01X390733Y37166D02*
X389667D01*
Y39666D01*
X390733D01*
G01X390307Y38458D02*
X389667D01*
G01X369813Y140256D02*
X370987Y142089D01*
G01X370400Y142422D02*
Y139922D01*
G01X370987Y140256D02*
X369813Y142089D01*
G01X369600Y141172D02*
X371200D01*
G01X376413Y140339D02*
Y142839D01*
X376947D01*
X377160Y142714D01*
X377320Y142547D01*
X377453Y142297D01*
X377560Y142006D01*
X377587Y141589D01*
X377560Y141172D01*
X377453Y140881D01*
X377320Y140631D01*
X377160Y140464D01*
X376947Y140339D01*
X376413D01*
G01X378880Y142839D02*
X379520D01*
G01X379200D02*
Y140339D01*
G01X378880D02*
X379520D01*
G01X381933D02*
X380867D01*
Y142839D01*
X381933D01*
G01X381507Y141631D02*
X380867D01*
G01X383067Y142839D02*
Y140339D01*
X384133D01*
G01X386333D02*
X385267D01*
Y142839D01*
X386333D01*
G01X385907Y141631D02*
X385267D01*
G01X388587Y142631D02*
X388427Y142756D01*
X388240Y142839D01*
X388027D01*
X387787Y142714D01*
X387600Y142506D01*
X387467Y142256D01*
X387360Y141839D01*
X387333Y141464D01*
X387387Y141089D01*
X387467Y140839D01*
X387627Y140589D01*
X387813Y140422D01*
X388000Y140339D01*
X388187D01*
X388373Y140422D01*
X388533Y140547D01*
X388667Y140714D01*
G01X390200Y142839D02*
Y140339D01*
G01X389587Y142839D02*
X390813D01*
G01X391867Y140339D02*
Y142839D01*
X392533D01*
X392747Y142714D01*
X392880Y142547D01*
X392933Y142214D01*
X392880Y141881D01*
X392720Y141672D01*
X392533Y141547D01*
X391867D01*
G01X392533D02*
X392933Y140339D01*
G01X394280Y142839D02*
X394920D01*
G01X394600D02*
Y140339D01*
G01X394280D02*
X394920D01*
G01X397387Y142631D02*
X397227Y142756D01*
X397040Y142839D01*
X396827D01*
X396587Y142714D01*
X396400Y142506D01*
X396267Y142256D01*
X396160Y141839D01*
X396133Y141464D01*
X396187Y141089D01*
X396267Y140839D01*
X396427Y140589D01*
X396613Y140422D01*
X396800Y140339D01*
X396987D01*
X397173Y140422D01*
X397333Y140547D01*
X397467Y140714D01*
G01X369813Y240929D02*
X370987Y242762D01*
G01X370400Y243095D02*
Y240595D01*
G01X370987Y240929D02*
X369813Y242762D01*
G01X369600Y241845D02*
X371200D01*
G01X376440Y241345D02*
X376653Y241137D01*
X376893Y241012D01*
X377107D01*
X377320Y241137D01*
X377480Y241345D01*
X377560Y241637D01*
X377507Y241929D01*
X377373Y242179D01*
X377133Y242345D01*
X376813Y242429D01*
X376627Y242595D01*
X376547Y242887D01*
X376600Y243179D01*
X376733Y243387D01*
X376920Y243512D01*
X377107D01*
X377293Y243429D01*
X377453Y243220D01*
G01X378613Y243512D02*
Y241720D01*
X378720Y241345D01*
X378933Y241095D01*
X379200Y241012D01*
X379467Y241095D01*
X379680Y241345D01*
X379787Y241720D01*
Y243512D01*
G01X380867Y241012D02*
Y243512D01*
X381533D01*
X381747Y243387D01*
X381880Y243220D01*
X381933Y242887D01*
X381880Y242554D01*
X381720Y242345D01*
X381533Y242220D01*
X380867D01*
G01X381533D02*
X381933Y241012D01*
G01X383093D02*
Y243512D01*
X384107D01*
G01X383733Y242304D02*
X383093D01*
G01X385133Y241012D02*
X385800Y243512D01*
X386467Y241012D01*
G01X386227Y241887D02*
X385373D01*
G01X388587Y243304D02*
X388427Y243429D01*
X388240Y243512D01*
X388027D01*
X387787Y243387D01*
X387600Y243179D01*
X387467Y242929D01*
X387360Y242512D01*
X387333Y242137D01*
X387387Y241762D01*
X387467Y241512D01*
X387627Y241262D01*
X387813Y241095D01*
X388000Y241012D01*
X388187D01*
X388373Y241095D01*
X388533Y241220D01*
X388667Y241387D01*
G01X390733Y241012D02*
X389667D01*
Y243512D01*
X390733D01*
G01X390307Y242304D02*
X389667D01*
G01X365467Y231159D02*
Y228659D01*
X366533D01*
G01X368200D02*
Y231159D01*
X367880Y230659D01*
G01Y228659D02*
X368520D01*
G01X372600Y231159D02*
Y228659D01*
G01X371987Y231159D02*
X373213D01*
G01X374800Y228659D02*
X374587Y228701D01*
X374400Y228867D01*
X374240Y229117D01*
X374133Y229409D01*
X374080Y229742D01*
Y230076D01*
X374133Y230409D01*
X374240Y230701D01*
X374400Y230951D01*
X374587Y231117D01*
X374800Y231159D01*
X375013Y231117D01*
X375200Y230951D01*
X375360Y230701D01*
X375467Y230409D01*
X375520Y230076D01*
Y229742D01*
X375467Y229409D01*
X375360Y229117D01*
X375200Y228867D01*
X375013Y228701D01*
X374800Y228659D01*
G01X376467D02*
Y231159D01*
X377107D01*
X377320Y231034D01*
X377480Y230742D01*
X377533Y230409D01*
X377480Y230076D01*
X377347Y229826D01*
X377107Y229701D01*
X376467D01*
G01X381987Y230951D02*
X381827Y231076D01*
X381640Y231159D01*
X381427D01*
X381187Y231034D01*
X381000Y230826D01*
X380867Y230576D01*
X380760Y230159D01*
X380733Y229784D01*
X380787Y229409D01*
X380867Y229159D01*
X381027Y228909D01*
X381213Y228742D01*
X381400Y228659D01*
X381587D01*
X381773Y228742D01*
X381933Y228867D01*
X382067Y229034D01*
G01X383600Y228659D02*
X383387Y228701D01*
X383200Y228867D01*
X383040Y229117D01*
X382933Y229409D01*
X382880Y229742D01*
Y230076D01*
X382933Y230409D01*
X383040Y230701D01*
X383200Y230951D01*
X383387Y231117D01*
X383600Y231159D01*
X383813Y231117D01*
X384000Y230951D01*
X384160Y230701D01*
X384267Y230409D01*
X384320Y230076D01*
Y229742D01*
X384267Y229409D01*
X384160Y229117D01*
X384000Y228867D01*
X383813Y228701D01*
X383600Y228659D01*
G01X385187D02*
Y231159D01*
X386413Y228659D01*
Y231159D01*
G01X387413Y228659D02*
Y231159D01*
X387947D01*
X388160Y231034D01*
X388320Y230867D01*
X388453Y230617D01*
X388560Y230326D01*
X388587Y229909D01*
X388560Y229492D01*
X388453Y229201D01*
X388320Y228951D01*
X388160Y228784D01*
X387947Y228659D01*
X387413D01*
G01X389613Y231159D02*
Y229367D01*
X389720Y228992D01*
X389933Y228742D01*
X390200Y228659D01*
X390467Y228742D01*
X390680Y228992D01*
X390787Y229367D01*
Y231159D01*
G01X392987Y230951D02*
X392827Y231076D01*
X392640Y231159D01*
X392427D01*
X392187Y231034D01*
X392000Y230826D01*
X391867Y230576D01*
X391760Y230159D01*
X391733Y229784D01*
X391787Y229409D01*
X391867Y229159D01*
X392027Y228909D01*
X392213Y228742D01*
X392400Y228659D01*
X392587D01*
X392773Y228742D01*
X392933Y228867D01*
X393067Y229034D01*
G01X394600Y231159D02*
Y228659D01*
G01X393987Y231159D02*
X395213D01*
G01X396800Y228659D02*
X396587Y228701D01*
X396400Y228867D01*
X396240Y229117D01*
X396133Y229409D01*
X396080Y229742D01*
Y230076D01*
X396133Y230409D01*
X396240Y230701D01*
X396400Y230951D01*
X396587Y231117D01*
X396800Y231159D01*
X397013Y231117D01*
X397200Y230951D01*
X397360Y230701D01*
X397467Y230409D01*
X397520Y230076D01*
Y229742D01*
X397467Y229409D01*
X397360Y229117D01*
X397200Y228867D01*
X397013Y228701D01*
X396800Y228659D01*
G01X398467D02*
Y231159D01*
X399133D01*
X399347Y231034D01*
X399480Y230867D01*
X399533Y230534D01*
X399480Y230201D01*
X399320Y229992D01*
X399133Y229867D01*
X398467D01*
G01X399133D02*
X399533Y228659D01*
M02*
