G04 ================== begin FILE IDENTIFICATION RECORD ==================*
G04 Layout Name:  PROIECT_pcb.brd*
G04 Film Name:    TOP*
G04 File Format:  Gerber RS274X*
G04 File Origin:  Cadence Allegro 17.2-S025*
G04 Origin Date:  Fri Mar 22 15:31:01 2024*
G04 *
G04 Layer:  ETCH/TOP*
G04 Layer:  PIN/TOP*
G04 Layer:  VIA CLASS/TOP*
G04 *
G04 Offset:    (0.00 0.00)*
G04 Mirror:    No*
G04 Mode:      Positive*
G04 Rotation:  0*
G04 FullContactRelief:  No*
G04 UndefLineWidth:     0.00*
G04 ================== end FILE IDENTIFICATION RECORD ====================*
%FSLAX25Y25*MOIN*%
%IR0*IPPOS*OFA0.00000B0.00000*MIA0B0*SFA1.00000B1.00000*%
%ADD12C,.024*%
%ADD11C,.06*%
%ADD13C,.065*%
%ADD14R,.06X.06*%
%ADD10C,.128*%
%ADD15C,.02*%
%ADD16C,.036*%
G75*
%LPD*%
G75*
G54D10*
X10700Y10700D03*
X249300Y249300D03*
G54D11*
X15500Y62500D03*
Y72500D03*
X103000Y112500D03*
X129000Y20500D03*
X119000D03*
X129000Y50500D03*
X119000D03*
X109000D03*
X133000Y82500D03*
X123000D03*
X113000D03*
Y112500D03*
X123000D03*
X133000D03*
X114500Y210000D03*
X124500D03*
X114500Y240000D03*
X124500D03*
X159000Y20500D03*
X149000D03*
X139000D03*
X159000Y50500D03*
X149000D03*
X139000D03*
X163000Y82500D03*
X153000D03*
X143000D03*
Y112500D03*
X153000D03*
X163000D03*
X134500Y210000D03*
X144500D03*
X154500D03*
X134500Y240000D03*
X144500D03*
X169000Y20500D03*
Y50500D03*
X173000Y82500D03*
Y112500D03*
X247500Y63000D03*
Y73000D03*
G54D12*
X15500Y90500D03*
X24500Y96000D03*
Y224500D03*
X59500Y102000D03*
Y210000D03*
X88500Y121500D03*
Y249500D03*
X109000Y20500D03*
X105000Y60000D03*
X103000Y82500D03*
X113000Y82000D03*
Y82500D03*
X114500Y63500D03*
X123000Y90500D03*
X113000Y130500D03*
X123000Y140500D03*
X114500Y210000D03*
X124500Y224500D03*
Y252500D03*
X149000Y30000D03*
X159000Y60000D03*
X153000Y82500D03*
Y67000D03*
X139000D03*
X143000Y72500D03*
X153000Y121500D03*
X133000Y96000D03*
X143000Y102000D03*
X135500Y140500D03*
X144500Y210000D03*
Y223000D03*
X164000Y91000D03*
X163000Y66500D03*
X162500Y130500D03*
X198500Y30000D03*
X192500Y36000D03*
X197500Y91000D03*
X192500Y66500D03*
X201000Y72500D03*
Y220000D03*
X231500Y112500D03*
X234500Y141500D03*
G54D13*
X24500D03*
Y181500D03*
X59500Y141000D03*
Y181000D03*
X88500Y141000D03*
Y181000D03*
X135500Y140500D03*
X162500Y141000D03*
X135500Y180500D03*
X162500Y181000D03*
X201000Y141000D03*
Y181000D03*
X234500Y141500D03*
Y181500D03*
G54D14*
X103000Y82500D03*
X109000Y20500D03*
X154500Y240000D03*
G54D15*
G01X247500Y63000D02*
X247000Y63500D01*
X222500D01*
X220500Y61500D01*
Y13500D01*
X218500Y11500D01*
X42500D01*
X40500Y13500D01*
Y48500D01*
X42500Y50500D01*
X109000D01*
G01X24500Y141500D02*
Y96000D01*
G01Y224500D02*
Y181500D01*
G01X59500Y141000D02*
Y102000D01*
G01Y210000D02*
Y181000D01*
G01X88500Y141000D02*
Y121500D01*
G01Y249500D02*
Y181000D01*
G01X109000Y20500D02*
Y30500D01*
X129000Y50500D01*
G01X103000Y82500D02*
Y62000D01*
X105000Y60000D01*
G01X113000Y82000D02*
Y65000D01*
X114500Y63500D01*
G01X113000Y82500D02*
Y82000D01*
G01Y130500D02*
Y112500D01*
G01X123000Y140500D02*
Y112500D01*
G01X124500Y210000D02*
Y224500D01*
G01Y240000D02*
Y252500D01*
G01X139000Y67000D02*
Y50500D01*
G01X159000Y60000D02*
Y50500D01*
G01X153000Y82500D02*
Y67000D01*
G01Y121500D02*
Y112500D01*
G01X133000Y96000D02*
Y112500D01*
G01X143000Y102000D02*
Y112500D01*
G01X135500Y180500D02*
Y192000D01*
X144500Y201000D01*
Y210000D01*
G01X162500Y181000D02*
Y194000D01*
X154500Y202000D01*
Y210000D01*
G01Y240000D02*
X232000D01*
X234000Y238000D01*
Y182000D01*
X234500Y181500D01*
G01X144500Y240000D02*
Y223000D01*
G01X163000Y82500D02*
Y66500D01*
G01X164000Y91000D02*
Y93700D01*
X163000Y94700D01*
Y112500D01*
G01X162500Y141000D02*
Y130500D01*
G01X192500Y66500D02*
Y36000D01*
G01X201000Y141000D02*
Y94500D01*
X197500Y91000D01*
G01X201000Y220000D02*
Y181000D01*
G01X234500Y141500D02*
Y115500D01*
X231500Y112500D01*
G54D16*
G01X15500Y72500D02*
Y90500D01*
G01X123000D02*
Y82500D01*
G01X103000Y112500D02*
X123000Y92500D01*
Y90500D01*
G01X103000Y112500D02*
Y173000D01*
X134500Y204500D01*
Y210000D01*
G01X149000Y30000D02*
Y20500D01*
G01X143000Y82500D02*
Y72500D01*
G01X134500Y240000D02*
Y210000D01*
G01X201000Y72500D02*
Y32500D01*
X198500Y30000D01*
M02*
